<svg width="33" height="33" viewBox="0 0 33 33" fill="none" xmlns="http://www.w3.org/2000/svg">
<path d="M10.5 4.5H8.9C6.65979 4.5 5.53969 4.5 4.68404 4.93597C3.93139 5.31947 3.31947 5.93139 2.93597 6.68404C2.5 7.53968 2.5 8.65979 2.5 10.9V14.5M10.5 4.5H22.5M10.5 4.5V2.5M10.5 4.5V8.5M22.5 4.5H24.1C26.3402 4.5 27.4603 4.5 28.316 4.93597C29.0686 5.31947 29.6805 5.93139 30.064 6.68404C30.5 7.53968 30.5 8.65979 30.5 10.9V14.5M22.5 4.5V2.5M22.5 4.5V8.5M30.5 14.5V24.1C30.5 26.3402 30.5 27.4603 30.064 28.316C29.6805 29.0686 29.0686 29.6805 28.316 30.064C27.4603 30.5 26.3402 30.5 24.1 30.5H8.9C6.65979 30.5 5.53969 30.5 4.68404 30.064C3.93139 29.6805 3.31947 29.0686 2.93597 28.316C2.5 27.4603 2.5 26.3402 2.5 24.1V14.5M30.5 14.5H2.5" stroke="#08313A" stroke-width="3" stroke-linecap="round"/>
</svg>
